<svg width="232" height="71" viewBox="0 0 232 71" fill="none" xmlns="http://www.w3.org/2000/svg">
<path d="M0 -2H232V61C232 66.5229 227.523 71 222 71H10C4.47715 71 0 66.5229 0 61V-2Z" fill="#A276FF"/>
<path d="M72.9167 29.0105C71.9192 29.7141 70.8147 30.2523 69.6458 30.6042C69.0185 29.8829 68.1847 29.3716 67.2573 29.1396C66.3299 28.9075 65.3536 28.9659 64.4605 29.3068C63.5674 29.6477 62.8005 30.2546 62.2635 31.0456C61.7266 31.8365 61.4455 32.7733 61.4583 33.7292V34.7709C59.6277 34.8184 57.8138 34.4124 56.1781 33.5891C54.5424 32.7658 53.1357 31.5507 52.0833 30.0521C52.0833 30.0521 47.9167 39.4271 57.2917 43.5938C55.1464 45.05 52.5908 45.7802 50 45.6771C59.375 50.8855 70.8333 45.6771 70.8333 33.698C70.8324 33.4078 70.8045 33.1184 70.75 32.8334C71.8131 31.7849 72.5634 30.4612 72.9167 29.0105V29.0105Z" stroke="white" stroke-width="1.04167" stroke-linecap="round" stroke-linejoin="round"/>
<path d="M184.75 27.0833H181.625C180.244 27.0833 178.919 27.632 177.942 28.6087C176.965 29.5855 176.417 30.9102 176.417 32.2916V35.4166H173.292V39.5833H176.417V47.9166H180.583V39.5833H183.708L184.75 35.4166H180.583V32.2916C180.583 32.0153 180.693 31.7504 180.888 31.555C181.084 31.3597 181.349 31.2499 181.625 31.2499H184.75V27.0833Z" stroke="white" stroke-width="1.04167" stroke-linecap="round" stroke-linejoin="round"/>
</svg>
